<svg xmlns="http://www.w3.org/2000/svg" xmlns:xlink="http://www.w3.org/1999/xlink" width="840" height="387.35999999999996"><rect width="840" height="387.35999999999996" rx="0" ry="0" class="a"></rect><svg height="347.35999999999996" viewBox="0 0 80 34.736" width="800" x="20" xmlns="http://www.w3.org/2000/svg" xmlns:xlink="http://www.w3.org/1999/xlink" y="20"><style>.a{fill:rgb(40,45,53)}.b{font-family:'Fira Code',Monaco,Consolas,Menlo,'Bitstream Vera Sans Mono','Powerline Symbols',monospace}.c{fill:transparent}.d{fill:rgb(148,148,148);white-space:pre}.e{fill:rgb(148,148,148);font-weight:bold;white-space:pre}.f{fill:rgb(185,192,203);white-space:pre}.g{fill:rgb(148,148,148);font-style:italic;white-space:pre}.h{fill:rgb(188,188,188);white-space:pre}</style><g font-family="&#x27;Fira Code&#x27;,Monaco,Consolas,Menlo,&#x27;Bitstream Vera Sans Mono&#x27;,&#x27;Powerline Symbols&#x27;,monospace" font-size="1.67" class="b"><defs><symbol id="a"><rect height="16" width="80" x="0" y="0" class="c"></rect></symbol></defs><rect height="34.736" width="80" class="a"></rect><svg x="0" y="0" width="80"><svg x="0"><use xlink:href="#a"></use><text font-size="1.67" x="0" y="1.67" class="d">#</text><text font-size="1.67" x="2.004" y="1.67" class="e">Steinauer</text><text font-size="1.67" x="12.024" y="1.67" class="e">et</text><text font-size="1.67" x="15.029999999999998" y="1.67" class="e">al.</text><text font-size="1.67" x="19.037999999999997" y="1.67" class="e">2015</text><text font-size="1.67" x="0" y="3.8409999999999997" class="d">#</text><text font-size="1.67" x="2.004" y="3.8409999999999997" class="d">An</text><text font-size="1.67" x="5.01" y="3.8409999999999997" class="d">edibble:</text><text font-size="1.67" x="14.027999999999999" y="3.8409999999999997" class="d">81</text><text font-size="1.67" x="17.034" y="3.8409999999999997" class="d">x</text><text font-size="1.67" x="19.037999999999997" y="3.8409999999999997" class="d">4</text><text font-size="1.67" x="9.017999999999999" y="6.012" class="f">plot</text><text font-size="1.67" x="17.034" y="6.012" class="f">subplot</text><text font-size="1.67" x="25.05" y="6.012" class="f">plant_diversity</text><text font-size="1.67" x="41.082" y="6.012" class="f">temperature</text><text font-size="1.67" x="3.006" y="8.183" class="g">&lt;unit(27)&gt;</text><text font-size="1.67" x="14.027999999999999" y="8.183" class="g">&lt;unit(81)&gt;</text><text font-size="1.67" x="32.064" y="8.183" class="g">&lt;trt(3)&gt;</text><text font-size="1.67" x="44.087999999999994" y="8.183" class="g">&lt;trt(3)&gt;</text><text font-size="1.67" x="1.002" y="10.354" class="h">1</text><text font-size="1.67" x="8.016" y="10.354" class="f">plot1</text><text font-size="1.67" x="15.029999999999998" y="10.354" class="f">subplot1</text><text font-size="1.67" x="39.077999999999996" y="10.354" class="f">4</text><text font-size="1.67" x="47.093999999999994" y="10.354" class="f">3°C</text><text font-size="1.67" x="1.002" y="12.525" class="h">2</text><text font-size="1.67" x="8.016" y="12.525" class="f">plot1</text><text font-size="1.67" x="15.029999999999998" y="12.525" class="f">subplot2</text><text font-size="1.67" x="39.077999999999996" y="12.525" class="f">4</text><text font-size="1.67" x="47.093999999999994" y="12.525" class="f">1.5°C</text><text font-size="1.67" x="1.002" y="14.696" class="h">3</text><text font-size="1.67" x="8.016" y="14.696" class="f">plot1</text><text font-size="1.67" x="15.029999999999998" y="14.696" class="f">subplot3</text><text font-size="1.67" x="39.077999999999996" y="14.696" class="f">4</text><text font-size="1.67" x="47.093999999999994" y="14.696" class="f">0°C</text><text font-size="1.67" x="1.002" y="16.866999999999997" class="h">4</text><text font-size="1.67" x="8.016" y="16.866999999999997" class="f">plot2</text><text font-size="1.67" x="15.029999999999998" y="16.866999999999997" class="f">subplot4</text><text font-size="1.67" x="39.077999999999996" y="16.866999999999997" class="f">4</text><text font-size="1.67" x="47.093999999999994" y="16.866999999999997" class="f">3°C</text><text font-size="1.67" x="1.002" y="19.037999999999997" class="h">5</text><text font-size="1.67" x="8.016" y="19.037999999999997" class="f">plot2</text><text font-size="1.67" x="15.029999999999998" y="19.037999999999997" class="f">subplot5</text><text font-size="1.67" x="39.077999999999996" y="19.037999999999997" class="f">4</text><text font-size="1.67" x="47.093999999999994" y="19.037999999999997" class="f">0°C</text><text font-size="1.67" x="1.002" y="21.209000000000003" class="h">6</text><text font-size="1.67" x="8.016" y="21.209000000000003" class="f">plot2</text><text font-size="1.67" x="15.029999999999998" y="21.209000000000003" class="f">subplot6</text><text font-size="1.67" x="39.077999999999996" y="21.209000000000003" class="f">4</text><text font-size="1.67" x="47.093999999999994" y="21.209000000000003" class="f">1.5°C</text><text font-size="1.67" x="1.002" y="23.380000000000003" class="h">7</text><text font-size="1.67" x="8.016" y="23.380000000000003" class="f">plot3</text><text font-size="1.67" x="15.029999999999998" y="23.380000000000003" class="f">subplot7</text><text font-size="1.67" x="39.077999999999996" y="23.380000000000003" class="f">4</text><text font-size="1.67" x="47.093999999999994" y="23.380000000000003" class="f">3°C</text><text font-size="1.67" x="1.002" y="25.550999999999995" class="h">8</text><text font-size="1.67" x="8.016" y="25.550999999999995" class="f">plot3</text><text font-size="1.67" x="15.029999999999998" y="25.550999999999995" class="f">subplot8</text><text font-size="1.67" x="39.077999999999996" y="25.550999999999995" class="f">4</text><text font-size="1.67" x="47.093999999999994" y="25.550999999999995" class="f">0°C</text><text font-size="1.67" x="1.002" y="27.722" class="h">9</text><text font-size="1.67" x="8.016" y="27.722" class="f">plot3</text><text font-size="1.67" x="15.029999999999998" y="27.722" class="f">subplot9</text><text font-size="1.67" x="39.077999999999996" y="27.722" class="f">4</text><text font-size="1.67" x="47.093999999999994" y="27.722" class="f">1.5°C</text><text font-size="1.67" x="0" y="29.893" class="h">10</text><text font-size="1.67" x="8.016" y="29.893" class="f">plot4</text><text font-size="1.67" x="15.029999999999998" y="29.893" class="f">subplot10</text><text font-size="1.67" x="39.077999999999996" y="29.893" class="f">4</text><text font-size="1.67" x="47.093999999999994" y="29.893" class="f">1.5°C</text><text font-size="1.67" x="0" y="32.064" class="d">#</text><text font-size="1.67" x="2.004" y="32.064" class="d">ℹ</text><text font-size="1.67" x="4.008" y="32.064" class="d">71</text><text font-size="1.67" x="7.013999999999999" y="32.064" class="d">more</text><text font-size="1.67" x="12.024" y="32.064" class="d">rows</text><text font-size="1.67" x="0" y="34.235" class="d">#</text><text font-size="1.67" x="2.004" y="34.235" class="d">ℹ</text><text font-size="1.67" x="4.008" y="34.235" class="d">Use</text><text font-size="1.67" x="8.016" y="34.235" class="d">`print(n</text><text font-size="1.67" x="17.034" y="34.235" class="d">=</text><text font-size="1.67" x="19.037999999999997" y="34.235" class="d">...)`</text><text font-size="1.67" x="25.05" y="34.235" class="d">to</text><text font-size="1.67" x="28.055999999999997" y="34.235" class="d">see</text><text font-size="1.67" x="32.064" y="34.235" class="d">more</text><text font-size="1.67" x="37.074" y="34.235" class="d">rows</text></svg></svg></g></svg></svg>